<svg width="22" height="22" viewBox="0 0 22 22" fill="none" xmlns="http://www.w3.org/2000/svg">
<g clip-path="url(#clip0_1203_228)">
<path d="M0.617188 0H22.0001V21.3829H0.617188V0Z" fill="#8A05BE"/>
<path d="M16.4016 12.3837C16.4016 12.7224 15.9975 13.1387 15.6689 13.1387H15.3696C15.3699 11.066 15.3699 8.74221 15.3696 8.32975C15.3695 8.31753 15.3718 8.30542 15.3763 8.29409C15.3809 8.28276 15.3877 8.27244 15.3962 8.26372C15.4048 8.25501 15.415 8.24807 15.4262 8.2433C15.4375 8.23853 15.4495 8.23602 15.4617 8.23593H16.3091C16.36 8.23593 16.4017 8.27863 16.4017 8.33048V12.3837H16.4016ZM15.0208 13.8661C15.0208 14.0805 14.9159 14.4396 14.2132 14.4396C12.8514 14.4396 12.0155 13.3727 12.0155 12.6075C12.0155 12.6075 12.0139 10.1334 12.0139 8.33053C12.0138 8.3183 12.0161 8.30616 12.0207 8.29481C12.0252 8.28346 12.032 8.27313 12.0406 8.26441C12.0492 8.25569 12.0594 8.24876 12.0706 8.244C12.0819 8.23925 12.094 8.23677 12.1062 8.23671H12.9546C13.0056 8.23671 13.0474 8.27914 13.0474 8.33131V12.3067C13.0474 12.9635 13.5672 13.4963 14.2081 13.4963H15.0213L15.0208 13.8661ZM16.3734 7.8794H15.3973C15.1898 7.8794 15.0207 8.05275 15.0207 8.26539V13.1392H14.2075C13.7588 13.1392 13.3951 12.7664 13.3951 12.3066V8.26539C13.3951 8.05224 13.2263 7.87922 13.0184 7.87922H12.0418C11.8339 7.87922 11.6651 8.05224 11.6648 8.26539C11.6643 10.0275 11.6663 12.6076 11.6663 12.6076C11.6665 13.9638 13.1496 14.7966 14.2129 14.7966C14.9262 14.7966 15.3692 14.4393 15.3692 13.8636V13.4962H15.6687C16.1942 13.4962 16.75 12.9245 16.75 12.3837V8.26539C16.7505 8.05224 16.5817 7.87922 16.3735 7.87922V7.8794H16.3734ZM10.6044 13.0525C10.6045 13.0647 10.6022 13.0768 10.5976 13.0882C10.5931 13.0995 10.5863 13.1098 10.5777 13.1185C10.5692 13.1272 10.5589 13.1341 10.5477 13.1389C10.5364 13.1436 10.5244 13.1461 10.5121 13.1461H9.66376C9.61214 13.1461 9.57077 13.1033 9.571 13.0518V9.07635C9.571 8.41957 9.05101 7.8868 8.41031 7.8868H7.59705V7.5169C7.59705 7.30297 7.70195 6.94336 8.40466 6.94336C9.7665 6.94336 10.6027 8.01023 10.6027 8.77545C10.6027 8.77545 10.6042 11.2616 10.6042 13.0525H10.6044V13.0525ZM6.30835 13.147C6.25673 13.1455 6.21545 13.1039 6.21605 13.0522V8.99973C6.21605 8.66099 6.6202 8.24411 6.94873 8.24411H7.24825C7.24779 11.2124 7.24779 12.7312 7.24825 13.052C7.24849 13.0768 7.23889 13.1007 7.22157 13.1184C7.20424 13.1362 7.1806 13.1463 7.15581 13.1466H6.30849L6.30835 13.147ZM10.9509 8.77549C10.9511 7.41917 9.46789 6.58643 8.40471 6.58643C7.69129 6.58643 7.24825 6.94369 7.24825 7.51934V7.8868H6.94887C6.42323 7.8868 5.86743 8.4585 5.86743 8.99931V13.1176C5.86743 13.3307 6.03618 13.5038 6.24404 13.5038H7.21998C7.22605 13.5038 7.23124 13.5021 7.23731 13.5021C7.43677 13.4925 7.59655 13.3245 7.59655 13.1176V8.24383H8.40995C8.85845 8.24383 9.22229 8.61663 9.22229 9.0764V13.1176C9.22229 13.3308 9.39108 13.5038 9.5989 13.5038H10.5756C10.7836 13.5038 10.9522 13.3313 10.9522 13.1176C10.953 11.3227 10.951 8.7754 10.951 8.7754L10.9509 8.77549Z" fill="white"/>
</g>
<defs>
<clipPath id="clip0_1203_228">
<rect width="21.3829" height="21.3829" fill="white" transform="translate(0.617188)"/>
</clipPath>
</defs>
</svg>
